# AST/ASF file generated using VICON BodyLanguage
# -----------------------------------------------
:version 1.10
:name VICON
:units
  mass 1.0
  length 0.45
  angle deg
:documentation
   .ast/.asf automatically generated from VICON data using
   VICON BodyBuilder and BodyLanguage model FoxedUp or BRILLIANT.MOD
:root
   order TX TY TZ RX RY RZ
   axis XYZ
   position 0 0 0  
   orientation 0 0 0 
:bonedata
  begin
     id 1 
     name lhipjoint
     direction 0.690799 -0.707083 0.151096 
     length 2.54797 
     axis 0 0 0  XYZ
  end
  begin
     id 2 
     name lfemur
     direction 0.34202 -0.939693 0  
     length 7.21646  
     axis 0 0 20  XYZ
    dof rx ry rz
    limits (-160.0 20.0)
           (-70.0 70.0)
           (-60.0 70.0)
  end
  begin
     id 3 
     name ltibia
     direction 0.34202 -0.939693 0   
     length 8.16759   
     axis 0 0 20   XYZ
    dof rx
    limits (-10.0 170.0)
  end
  begin
     id 4 
     name lfoot
     direction 0.0487203 -0.133858 0.989802   
     length 1.93375   
     axis -90 7.62852e-016 20   XYZ
    dof rx rz
    limits (-45.0 90.0)
           (-70.0 20.0)
  end
  begin
     id 5 
     name ltoes
     direction 1.53453e-011 -4.21783e-011 1   
     length 0.979747   
     axis -90 7.62852e-016 20   XYZ
    dof rx
    limits (-90.0 20.0)
  end
  begin
     id 6 
     name rhipjoint
     direction -0.694693 -0.703425 0.150315   
     length 2.56122  
     axis 0 0 0  XYZ 
  end
  begin
     id 7 
     name rfemur
     direction -0.34202 -0.939693 0   
     length 7.36786   
     axis 0 0 -20   XYZ
    dof rx ry rz
    limits (-160.0 20.0)
           (-70.0 70.0)
           (-70.0 60.0)
  end
  begin
     id 8 
     name rtibia
     direction -0.34202 -0.939693 0   
     length 8.07288   
     axis 0 0 -20   XYZ
    dof rx
    limits (-10.0 170.0)
 end
 begin
     id 9 
     name rfoot
     direction -0.0428397 -0.117701 0.992125   
     length 1.88295  
     axis -90 -7.62852e-016 -20   XYZ
    dof rx rz
    limits (-45.0 90.0)
           (-20.0 70.0)
  end
  begin
     id 10 
     name rtoes
     direction -1.53456e-011 -4.2187e-011 1   
     length 0.955578   
     axis -90 -7.62852e-016 -20   XYZ
    dof rx
    limits (-90.0 20.0)
  end
  begin
     id 11 
     name lowerback
     direction 0.0288145 0.999398 -0.0193241   
     length 1.92149   
     axis 0 0 0   XYZ
    dof rx ry rz
    limits (-20.0 45.0)
           (-30.0 30.0)
           (-30.0 30.0)
  end
  begin
     id 12 
     name upperback
     direction 0.0233784 0.998099 0.0570278   
     length 1.90435   
     axis 0 0 0   XYZ
    dof rx ry rz
    limits (-20.0 45.0)
           (-30.0 30.0)
           (-30.0 30.0)
  end
  begin
     id 13 
     name thorax
     direction 0.0096694 0.997833 0.0650817   
     length 1.9111   
     axis 0 0 0   XYZ
    dof rx ry rz
    limits (-20.0 45.0)
           (-30.0 30.0)
           (-30.0 30.0)
  end
  begin
     id 14 
     name lowerneck
     direction 0.00516803 0.999916 0.0118722   
     length 1.74664   
     axis 0 0 0   XYZ
    dof rx ry rz
    limits (-20.0 45.0)
           (-30.0 30.0)
           (-30.0 30.0)
  end
  begin
     id 15 
     name upperneck
     direction -0.0510851 0.996117 -0.071696   
     length 1.68498   
     axis 0 0 0   XYZ
    dof rx ry rz
    limits (-20.0 45.0)
           (-30.0 30.0)
           (-30.0 30.0)
  end
  begin
     id 16
     name head
     direction -0.019188 0.999436 -0.0275702  
     length 1.83483  
     axis 0 0 0   XYZ
    dof rx ry rz
    limits (-20.0 45.0)
           (-30.0 30.0)
           (-30.0 30.0)
  end
  begin
     id 17 
     name lclavicle
     direction 0.967006 0.248456 -0.0562957  
     length 3.39395  
     axis 0 0 0   XYZ
    dof ry rz
    limits (-20.0 10.0)
           (0.0 20.0)
  end
  begin
     id 18 
     name lhumerus
     direction 1 -4.48962e-011 -5.62711e-019   
     length 5.24318   
     axis 180 -30 -90   XYZ
    dof rx ry rz
    limits (-60.0 90.0)
           (-90.0 90.0)
           (-90.0 90.0)
  end
  begin
     id 19
     name lradius
     direction 1 -4.48966e-011 7.90625e-027   
     length 2.98999   
     axis 180 -30 -90   XYZ
    dof rx
    limits (-10.0 170.0)
  end
  begin
     id 20
     name lwrist
     direction 1 -4.48959e-011 1.61068e-026   
     length 1.49499   
     axis -9.31229e-015 90 90   XYZ
    dof ry
    limits (-180.0 0.0)
 end
  begin
     id 21 
     name lhand
     direction 1 -4.49017e-011 3.22136e-026   
     length 0.726745   
     axis -2.0555e-014 90 90   XYZ
    dof rx rz
    limits (-90.0 90.0)
           (-45.0 45.0)
  end
  begin
     id 22 
     name lfingers
     direction 1 -4.4898e-011 6.44272e-026   
     length 0.58592   
     axis -4.11101e-014 90 90   XYZ
    dof rx
    limits (0.0 90.0)
  end
  begin
     id 23
     name lthumb
     direction 0.707107 -6.34922e-011 0.707107   
     length 0.841268   
     axis -90 45 2.85299e-015   XYZ
    dof rx rz
    limits (-45.0 45.0)
           (-45.0 45.0)
  end
  begin
     id 24 
     name rclavicle
     direction -0.972232 0.230238 0.0419005   
     length 3.40416  
     axis 0 0 0   XYZ 
    dof ry rz
    limits (-10.0 20.0)
           (-20.0 0.0)
  end
  begin
     id 25 
     name rhumerus
     direction -1 -4.48976e-011 2.48487e-027  
     length 5.37045   
     axis 180 30 90   XYZ
    dof rx ry rz
    limits (-90.0 60.0)
           (-90.0 90.0)
           (-90.0 90.0)
  end
  begin
     id 26 
     name rradius
     direction -1 -4.48942e-011 7.87951e-027   
     length 2.92792   
     axis 180 30 90   XYZ
    dof rx
    limits (-10.0 170.0)
  end
  begin
     id 27 
     name rwrist
     direction -1 -4.48969e-011 1.61068e-026   
     length 1.46396   
     axis -9.31229e-015 -90 -90   XYZ
    dof ry
    limits (-180.0 0.0)
  end
  begin
     id 28
     name rhand
     direction -1 -4.49043e-011 3.22136e-026   
     length 0.784497   
     axis -2.0555e-014 -90 -90   XYZ
    dof rx rz
    limits (-90.0 90.0)
           (-45.0 45.0)
  end
  begin
     id 29
     name rfingers
     direction -1 -4.48823e-011 6.44272e-026   
     length 0.632482   
     axis -4.11101e-014 -90 -90   XYZ
    dof rx
    limits (0.0 90.0)
  end
  begin
     id 30
     name rthumb
     direction -0.707107 -6.34923e-011 0.707107   
     length 0.908121   
     axis -90 -45 -2.85299e-015   XYZ
    dof rx rz
    limits (-45.0 45.0)
           (-45.0 45.0)
  end
:hierarchy
  begin
    root lhipjoint rhipjoint lowerback
    lhipjoint lfemur
    lfemur ltibia
    ltibia lfoot
    lfoot ltoes
    rhipjoint rfemur
    rfemur rtibia
    rtibia rfoot
    rfoot rtoes
    lowerback upperback
    upperback thorax
    thorax lowerneck lclavicle rclavicle
    lowerneck upperneck
    upperneck head
    lclavicle lhumerus
    lhumerus lradius
    lradius lwrist
    lwrist lhand lthumb
    lhand lfingers
    rclavicle rhumerus
    rhumerus rradius
    rradius rwrist
    rwrist rhand rthumb
    rhand rfingers
  end

#!OML:ASF E:\Style6\Style6.ASF
:FULLY-SPECIFIED
:DEGREES
462
root 0.444651 15.7073 0.504649 12.8613 -0.336268 -4.87767
lowerback 6.45366 -0.176406 2.88702
upperback -4.42477 0.522121 6.12546
thorax -8.36401 0.296462 4.82559
lowerneck -11.6419 2.91939 5.15855
upperneck 20.9098 4.99151 -8.95572
head 8.79465 1.85762 -3.35487
rclavicle 1.05356e-014 -3.02153e-014
rhumerus -44.7061 25.3104 -51.4676
rradius 52.2153
rwrist -14.2791
rhand 11.9807 9.21031
rfingers 7.12502
rthumb 37.0024 -16.8535
lclavicle 1.05356e-014 -3.02153e-014
lhumerus -38.4417 -58.5008 38.6013
lradius 39.574
lwrist -13.2186
lhand -3.34624 4.93071
lfingers 7.12502
lthumb 22.3816 33.6541
rfemur -46.8622 -12.8164 25.6016
rtibia 66.3412
rfoot -23.7477 12.5659
rtoes -1.56857
lfemur -46.8051 9.43934 -13.866
ltibia 70.2335
lfoot -29.5556 1.27951
ltoes -28.8543
463
root 0.447847 15.7134 0.504065 12.8971 -0.236558 -5.017
lowerback 6.36549 -0.185391 2.96343
upperback -4.38055 0.515115 6.21355
thorax -8.26515 0.291006 4.87515
lowerneck -11.616 2.93246 5.20691
upperneck 20.864 5.01762 -9.0457
head 8.7799 1.86625 -3.39054
rclavicle 6.55989e-015 9.54166e-015
rhumerus -44.6841 25.525 -51.5181
rradius 52.2565
rwrist -14.3807
rhand 11.8054 9.12098
rfingers 7.12502
rthumb 36.8367 -16.9855
lclavicle 6.55989e-015 9.54166e-015
lhumerus -37.7541 -58.8369 37.1598
lradius 39.6028
lwrist -13.66
lhand -3.63828 4.7113
lfingers 7.12502
lthumb 22.1013 33.4682
rfemur -46.835 -12.9191 25.7783
rtibia 66.2484
rfoot -24.0829 12.2501
rtoes -3.50164
lfemur -46.8443 9.40446 -13.7149
ltibia 70.2105
lfoot -29.5584 1.33425
ltoes -29.0894
464
root 0.451455 15.7184 0.502125 12.9235 -0.207911 -4.99279
lowerback 6.27065 -0.161833 2.84632
upperback -4.30384 0.526844 6.26422
thorax -8.1287 0.304178 4.99002
lowerneck -11.6344 2.93313 5.23385
upperneck 20.8141 5.03192 -9.14798
head 8.77095 1.8654 -3.42776
rclavicle 3.97569e-015 5.56597e-014
rhumerus -44.6509 25.6023 -51.471
rradius 52.3521
rwrist -14.3705
rhand 11.8206 9.18502
rfingers 7.12502
rthumb 36.8511 -16.9178
lclavicle 3.97569e-015 5.56597e-014
lhumerus -37.0949 -59.2922 35.7947
lradius 39.6797
lwrist -13.9598
lhand -3.90881 4.55043
lfingers 7.12502
lthumb 21.8415 33.3378
rfemur -46.8256 -12.9887 25.7544
rtibia 66.1758
rfoot -24.0611 12.2982
rtoes -3.34352
lfemur -46.8575 9.35015 -13.7571
ltibia 70.1767
lfoot -29.5441 1.21799
ltoes -28.8343
465
root 0.454391 15.7198 0.498706 12.9021 -0.176659 -5.00506
lowerback 6.24656 -0.12982 2.77949
upperback -4.22451 0.560329 6.32071
thorax -8.03251 0.325435 5.0813
lowerneck -11.715 2.91553 5.19382
upperneck 20.8507 5.02725 -9.19662
head 8.79852 1.85264 -3.43837
rclavicle 8.54774e-015 -1.59028e-015
rhumerus -44.6468 25.6337 -51.4001
rradius 52.4071
rwrist -14.2974
rhand 11.7924 9.48596
rfingers 7.12502
rthumb 36.8244 -16.6237
lclavicle 8.54774e-015 -1.59028e-015
lhumerus -36.4922 -59.9073 34.5212
lradius 39.7987
lwrist -14.0013
lhand -4.19053 4.53941
lfingers 7.12502
lthumb 21.571 33.3581
rfemur -46.7891 -13.0496 25.7616
rtibia 66.1174
rfoot -24.0165 12.4096
rtoes -3.18744
lfemur -46.8412 9.32542 -13.7447
ltibia 70.1536
lfoot -29.4986 1.10632
ltoes -28.5442
466
root 0.456965 15.7215 0.494341 12.8784 -0.153029 -5.08293
lowerback 6.25852 -0.0938212 2.79868
upperback -4.18625 0.612223 6.36566
thorax -8.0026 0.351088 5.11117
lowerneck -11.6263 2.88857 5.16227
upperneck 20.7958 4.99829 -9.21204
head 8.76041 1.83842 -3.44119
rclavicle -3.97569e-016 -2.38542e-014
rhumerus -44.7468 25.6607 -51.4075
rradius 52.5174
rwrist -14.2096
rhand 11.7372 9.64615
rfingers 7.12502
rthumb 36.7721 -16.4769
lclavicle -3.97569e-016 -2.38542e-014
lhumerus -35.9046 -60.6319 33.268
lradius 39.8428
lwrist -13.9589
lhand -4.39994 4.55304
lfingers 7.12502
lthumb 21.3699 33.3946
rfemur -46.7569 -13.0876 25.849
rtibia 66.0581
rfoot -24.014 12.348
rtoes -3.74631
lfemur -46.8291 9.31647 -13.6608
ltibia 70.1355
lfoot -29.4803 1.14962
ltoes -28.5577
467
root 0.459095 15.7259 0.492268 12.8435 -0.129168 -5.06468
lowerback 6.22691 -0.0667554 2.7006
upperback -4.11659 0.634796 6.40416
thorax -7.91194 0.368044 5.20254
lowerneck -11.5752 2.86535 5.08101
upperneck 20.7201 4.97613 -9.20149
head 8.72111 1.82545 -3.42508
rclavicle -1.27222e-014 3.33958e-014
rhumerus -44.7817 25.7162 -51.4036
rradius 52.6321
rwrist -14.1959
rhand 11.6743 9.77589
rfingers 7.12502
rthumb 36.7126 -16.3623
lclavicle -1.27222e-014 3.33958e-014
lhumerus -35.3241 -61.2186 31.9693
lradius 40.0003
lwrist -13.9281
lhand -4.46804 4.51576
lfingers 7.12502
lthumb 21.3045 33.3648
rfemur -46.7071 -13.1645 25.8329
rtibia 66.0097
rfoot -24.006 12.2092
rtoes -4.64731
lfemur -46.7743 9.26488 -13.6784
ltibia 70.0992
lfoot -29.4914 1.19121
ltoes -28.6212
468
root 0.462706 15.7308 0.489614 12.7756 -0.122212 -5.04367
lowerback 6.24934 -0.0399541 2.60366
upperback -4.02688 0.659692 6.44611
thorax -7.83168 0.385978 5.29712
lowerneck -11.6474 2.8447 5.03617
upperneck 20.7565 4.96772 -9.2471
head 8.7465 1.81103 -3.43432
rclavicle 5.56597e-015 -2.70347e-014
rhumerus -44.7923 25.7763 -51.3692
rradius 52.747
rwrist -14.2045
rhand 11.634 9.80721
rfingers 7.12502
rthumb 36.6744 -16.3407
lclavicle 5.56597e-015 -2.70347e-014
lhumerus -34.7961 -61.7935 30.6826
lradius 40.2629
lwrist -13.9229
lhand -4.44883 4.48562
lfingers 7.12502
lthumb 21.3229 33.3325
rfemur -46.602 -13.2353 25.7886
rtibia 65.9508
rfoot -23.5671 12.6922
rtoes -2.12503
lfemur -46.6856 9.21777 -13.7077
ltibia 70.0699
lfoot -29.5011 1.29152
ltoes -28.9954
469
root 0.465341 15.735 0.484965 12.7196 -0.124857 -5.04262
lowerback 6.29727 0.00260575 2.48977
upperback -3.95726 0.708072 6.4976
thorax -7.79056 0.417017 5.41006
lowerneck -11.7023 2.81696 5.03134
upperneck 20.8183 4.94827 -9.31289
head 8.77783 1.79257 -3.45929
rclavicle -5.56597e-015 1.59028e-015
rhumerus -44.8817 25.8495 -51.3443
rradius 52.9057
rwrist -14.2158
rhand 11.5867 9.79649
rfingers 7.12502
rthumb 36.6296 -16.3628
lclavicle -5.56597e-015 1.59028e-015
lhumerus -34.2486 -62.4968 29.4624
lradius 40.4764
lwrist -13.9101
lhand -4.31685 4.48523
lfingers 7.12502
lthumb 21.4497 33.3178
rfemur -46.5309 -13.2809 25.7782
rtibia 65.8909
rfoot -23.2502 12.9632
rtoes -0.717564
lfemur -46.6399 9.17454 -13.7065
ltibia 70.058
lfoot -29.4453 1.18281
ltoes -28.7638
470
root 0.468555 15.7358 0.479893 12.7061 -0.0860594 -5.11427
lowerback 6.3022 0.0452832 2.48355
upperback -3.90818 0.765698 6.5501
thorax -7.74638 0.446878 5.46152
lowerneck -11.7844 2.79345 5.06932
upperneck 20.903 4.92733 -9.38034
head 8.82296 1.77552 -3.4927
rclavicle 2.08724e-014 -1.59028e-015
rhumerus -44.9773 25.8828 -51.3386
rradius 53.0247
rwrist -14.2086
rhand 11.5589 9.81603
rfingers 7.12502
rthumb 36.6034 -16.3499
lclavicle 2.08724e-014 -1.59028e-015
lhumerus -33.6339 -63.2374 28.2203
lradius 40.621
lwrist -13.8655
lhand -4.16408 4.32947
lfingers 7.12502
lthumb 21.5964 33.1452
rfemur -46.5139 -13.3192 25.8573
rtibia 65.8365
rfoot -23.5491 12.4571
rtoes -3.9404
lfemur -46.6662 9.13287 -13.6274
ltibia 70.0613
lfoot -29.4111 1.14188
ltoes -28.4888
471
root 0.472798 15.7355 0.474884 12.7105 -0.0297326 -5.22742
lowerback 6.30088 0.0756871 2.5338
upperback -3.87037 0.813407 6.61425
thorax -7.7097 0.469328 5.49507
lowerneck -11.8397 2.77075 5.02536
upperneck 20.9471 4.90422 -9.36829
head 8.84516 1.7603 -3.48421
rclavicle 5.36719e-015 3.33958e-014
rhumerus -45.0672 26.0038 -51.3727
rradius 53.1309
rwrist -14.3307
rhand 11.4029 9.83751
rfingers 7.12502
rthumb 36.4557 -16.3657
lclavicle 5.36719e-015 3.33958e-014
lhumerus -33.2012 -64.08 27.1462
lradius 40.8228
lwrist -13.6855
lhand -4.09307 4.16311
lfingers 7.12502
lthumb 21.6646 32.971
rfemur -46.5042 -13.3584 25.9773
rtibia 65.7921
rfoot -23.8411 12.099
rtoes -6.16579
lfemur -46.716 9.08774 -13.5138
ltibia 70.0645
lfoot -29.4017 1.37049
ltoes -28.9675
472
root 0.476895 15.737 0.471141 12.6816 0.0243111 -5.24765
lowerback 6.31953 0.0916288 2.48581
upperback -3.82553 0.833077 6.67992
thorax -7.67623 0.483241 5.59013
lowerneck -11.7972 2.74808 4.87321
upperneck 20.8924 4.89426 -9.33552
head 8.81342 1.74911 -3.44708
rclavicle 6.95746e-015 -2.8625e-014
rhumerus -45.0725 26.1766 -51.3423
rradius 53.1769
rwrist -14.3997
rhand 11.4426 9.96407
rfingers 7.12502
rthumb 36.4933 -16.2297
lclavicle 6.95746e-015 -2.8625e-014
lhumerus -32.9763 -65.1178 26.3127
lradius 41.098
lwrist -13.3892
lhand -3.87664 4.24749
lfingers 7.12502
lthumb 21.8724 33.0313
rfemur -46.4582 -13.4374 25.9849
rtibia 65.7626
rfoot -23.7605 12.4633
rtoes -4.13269
lfemur -46.6977 9.00761 -13.4986
ltibia 70.0481
lfoot -29.3785 1.59501
ltoes -29.4586
473
root 0.481253 15.7405 0.467734 12.6134 0.0677876 -5.16725
lowerback 6.32589 0.105055 2.33775
upperback -3.73612 0.833441 6.71558
thorax -7.58637 0.49105 5.7104
lowerneck -11.8256 2.73546 4.81567
upperneck 20.8854 4.89958 -9.38783
head 8.81698 1.74135 -3.45438
rclavicle -5.76476e-015 -3.49861e-014
rhumerus -45.0263 26.3461 -51.2974
rradius 53.2084
rwrist -14.4671
rhand 11.4774 10.0707
rfingers 7.12502
rthumb 36.5262 -16.1148
lclavicle -5.76476e-015 -3.49861e-014
lhumerus -32.7445 -66.1876 25.4544
lradius 41.3937
lwrist -13.0205
lhand -3.68567 4.24088
lfingers 7.12502
lthumb 22.0558 33.0031
rfemur -46.3875 -13.5516 25.8768
rtibia 65.7407
rfoot -23.6982 12.6419
rtoes -3.20665
lfemur -46.6134 8.88365 -13.5816
ltibia 70.0247
lfoot -29.341 1.47927
ltoes -28.9231
474
root 0.485698 15.7418 0.462963 12.5083 0.157923 -5.21988
lowerback 6.38139 0.0914988 2.32443
upperback -3.62838 0.814975 6.78945
thorax -7.50315 0.483429 5.79797
lowerneck -11.9297 2.75808 4.85229
upperneck 20.9182 4.94759 -9.49284
head 8.85536 1.75297 -3.49151
rclavicle 2.98177e-015 1.90833e-014
rhumerus -44.9158 26.4886 -51.2394
rradius 53.2673
rwrist -14.6122
rhand 11.4541 10.0951
rfingers 7.12502
rthumb 36.5042 -16.0959
lclavicle 2.98177e-015 1.90833e-014
lhumerus -32.5155 -66.9005 24.5995
lradius 41.6317
lwrist -12.9844
lhand -3.30013 4.12726
lfingers 7.12502
lthumb 22.4259 32.8454
rfemur -46.2702 -13.6612 25.9151
rtibia 65.707
rfoot -23.6423 12.734
rtoes -2.72144
lfemur -46.5205 8.77232 -13.5065
ltibia 70.0256
lfoot -29.3065 1.54789
ltoes -28.9791
475
root 0.490016 15.742 0.457469 12.4432 0.221135 -5.33204
lowerback 6.42798 0.115339 2.34874
upperback -3.54758 0.852721 6.87549
thorax -7.44858 0.502441 5.87094
lowerneck -11.9895 2.75653 4.92553
upperneck 20.9252 4.96314 -9.64146
head 8.87602 1.74959 -3.55362
rclavicle 7.35503e-015 -5.88403e-014
rhumerus -44.902 26.5692 -51.1958
rradius 53.3576
rwrist -14.7312
rhand 11.3291 9.98673
rfingers 7.12502
rthumb 36.3859 -16.234
lclavicle 7.35503e-015 -5.88403e-014
lhumerus -32.2121 -67.7153 23.7972
lradius 41.7803
lwrist -12.9416
lhand -2.80757 4.0027
lfingers 7.12502
lthumb 22.8986 32.663
rfemur -46.1974 -13.7153 26.023
rtibia 65.666
rfoot -23.6576 12.6688
rtoes -2.97564
lfemur -46.5161 8.72512 -13.385
ltibia 70.0543
lfoot -29.2666 1.6822
ltoes -29.3438
476
root 0.494114 15.7414 0.452549 12.4107 0.290322 -5.41224
lowerback 6.45328 0.152699 2.33073
upperback -3.49091 0.904759 6.95799
thorax -7.40954 0.53093 5.96304
lowerneck -12.0358 2.75101 5.04761
upperneck 20.9999 4.99061 -9.88445
head 8.922 1.74538 -3.65719
rclavicle 6.75868e-015 -2.22639e-014
rhumerus -44.9439 26.7146 -51.1736
rradius 53.4195
rwrist -14.7589
rhand 11.2748 9.87518
rfingers 7.12502
rthumb 36.3345 -16.3585
lclavicle 6.75868e-015 -2.22639e-014
lhumerus -31.8945 -68.6117 23.0371
lradius 41.9419
lwrist -12.7568
lhand -2.19042 3.90944
lfingers 7.12502
lthumb 23.4907 32.4952
rfemur -46.1526 -13.7681 26.0959
rtibia 65.6217
rfoot -23.6479 12.7567
rtoes -2.65028
lfemur -46.5302 8.64665 -13.2952
ltibia 70.0686
lfoot -29.2292 1.63907
ltoes -29.2862
